<?xml version="1.0" standalone="no"?>
<!DOCTYPE svg PUBLIC "-//W3C//DTD SVG 20010904//EN"
 "http://www.w3.org/TR/2001/REC-SVG-20010904/DTD/svg10.dtd">
<svg version="1.0" xmlns="http://www.w3.org/2000/svg"
 width="626.000000pt" height="417.000000pt" viewBox="0 0 626.000000 417.000000"
 preserveAspectRatio="xMidYMid meet">

<g transform="translate(0.000000,417.000000) scale(0.100000,-0.100000)"
fill="#000000" stroke="none">
<path d="M2405 2899 c-345 -26 -607 -106 -863 -262 -74 -45 -102 -57 -135 -57
-66 0 -168 -19 -215 -41 -24 -10 -73 -42 -108 -69 -37 -29 -70 -48 -77 -44 -9
5 -9 4 0 -6 11 -11 31 -5 115 38 85 43 230 92 271 92 5 0 -16 -27 -47 -60 -31
-34 -61 -71 -67 -83 -7 -12 7 -1 30 24 129 146 435 317 676 378 310 79 832 94
1225 36 52 -7 96 -12 98 -10 5 5 -133 33 -243 50 -122 19 -493 27 -660 14z"/>
<path d="M2585 2803 c-95 -11 -162 -26 -196 -44 -22 -11 -39 -22 -39 -25 0 -4
33 -69 73 -146 77 -148 78 -158 17 -158 -21 1 -33 15 -74 90 -67 119 -109 176
-148 197 -76 41 -253 5 -454 -91 -140 -67 -154 -81 -154 -146 0 -43 3 -52 23
-59 38 -15 330 -33 463 -30 l127 4 15 -53 c12 -45 18 -53 36 -50 19 3 21 9 19
59 l-3 56 143 12 c137 12 199 20 317 41 93 16 428 31 785 33 l340 2 -70 56
c-107 85 -206 154 -252 178 -111 56 -347 82 -714 80 -123 -1 -237 -4 -254 -6z
m-429 -283 c32 -11 63 -26 69 -32 7 -8 5 -9 -10 -4 -44 16 -115 27 -152 24
-28 -2 -41 -9 -48 -25 -11 -27 -15 -28 -40 -9 -18 13 -18 15 -2 40 15 23 24
26 71 26 29 0 79 -9 112 -20z"/>
<path d="M3993 2497 c-39 -15 -52 -27 -28 -27 33 0 180 -78 261 -138 88 -65
256 -228 305 -297 40 -55 48 -52 18 7 -79 157 -242 313 -395 380 -53 23 -68
38 -39 38 18 0 20 21 3 38 -15 15 -83 14 -125 -1z"/>
<path d="M2770 2440 c0 -5 26 -10 58 -10 92 0 234 -35 325 -78 100 -49 181
-127 222 -213 24 -50 33 -59 55 -59 33 0 50 17 50 48 0 90 -200 242 -376 286
-33 9 -112 20 -175 26 -143 12 -159 12 -159 0z"/>
<path d="M4650 2339 c0 -49 202 -220 278 -235 45 -9 41 5 -20 72 -133 147
-258 226 -258 163z"/>
<path d="M4900 2289 c91 -90 115 -142 114 -244 0 -54 -7 -99 -20 -137 -25 -70
-8 -60 31 19 38 75 40 165 6 231 -28 55 -92 125 -151 165 -42 29 -41 27 20
-34z"/>
<path d="M2200 2231 c-89 -5 -98 -7 -60 -13 25 -4 95 -10 155 -13 61 -3 145
-8 187 -12 l77 -6 -29 -36 c-65 -81 -109 -239 -95 -336 32 -205 67 -314 125
-387 17 -20 30 -39 30 -42 0 -3 -245 -6 -545 -6 l-546 0 33 41 33 41 440 -6
c420 -5 434 -4 305 9 -648 68 -781 97 -881 194 l-47 46 -6 -63 c-5 -57 -49
-182 -60 -171 -3 2 5 31 17 64 18 50 21 83 21 206 l1 147 58 -52 c213 -188
366 -262 607 -295 112 -15 439 -35 447 -27 10 10 -30 58 -65 79 -17 10 -59 22
-94 27 -35 5 -114 16 -176 25 -198 28 -414 121 -662 286 -116 77 -140 97 -158
134 -44 90 -125 155 -197 155 -81 0 -160 -73 -198 -183 -42 -119 -29 -336 28
-476 32 -78 49 -106 94 -153 l35 -38 -50 0 c-27 0 -112 -9 -189 -19 -77 -11
-193 -25 -258 -32 -64 -7 -116 -14 -114 -15 4 -4 1044 -19 2293 -34 826 -10
2002 -2 2799 18 l260 7 -300 30 c-165 16 -364 31 -442 33 -79 2 -143 6 -143 8
0 3 17 25 37 50 l37 44 69 0 c67 0 69 1 63 23 -4 12 -9 90 -13 172 l-6 150
-20 -58 c-38 -114 -175 -218 -343 -261 -96 -25 -232 -36 -441 -36 -389 0 -539
43 -1158 334 -55 26 -95 43 -90 39 6 -5 51 -43 100 -85 250 -211 258 -218 241
-235 -4 -4 -82 -10 -174 -14 -176 -7 -259 -21 -279 -47 -27 -34 -25 1 5 65 38
85 52 152 52 251 0 121 -39 248 -101 325 -16 20 -25 37 -20 37 53 0 479 -164
666 -256 123 -61 128 -62 90 -29 -125 111 -415 272 -604 335 -173 58 -265 70
-514 68 -122 -1 -269 -4 -327 -7z m603 -104 c70 -30 144 -144 168 -257 17 -79
6 -232 -20 -301 -44 -116 -121 -188 -209 -197 -175 -16 -307 253 -247 506 20
82 38 117 94 176 74 78 144 102 214 73z m-1664 -142 c20 -134 23 -145 35 -145
6 0 19 43 30 102 11 56 22 96 24 90 10 -31 -34 -216 -49 -206 -39 24 -57 -108
-19 -146 23 -23 26 -34 8 -27 -9 2 -26 -33 -50 -102 -34 -97 -35 -107 -21
-118 9 -7 29 -13 45 -13 l28 0 1 113 2 112 8 -104 c4 -56 10 -106 14 -109 3
-3 17 6 32 20 l26 27 -31 97 c-32 97 -38 145 -9 62 9 -24 24 -65 33 -92 l18
-50 18 40 c27 59 32 102 17 121 -12 15 -12 16 3 10 13 -4 18 1 21 21 3 15 3 2
1 -29 -9 -152 -117 -288 -209 -265 -41 10 -97 68 -126 129 -76 161 -58 406 36
497 39 38 46 34 14 -9 l-21 -29 58 -81 c33 -47 61 -77 64 -70 4 6 2 41 -5 77
-7 37 -15 94 -19 127 -9 86 9 47 23 -50z m3283 -579 c9 -12 17 -23 18 -26 0
-5 -1253 0 -1258 5 -2 2 2 12 9 22 11 19 30 20 613 20 596 0 601 0 618 -21z"/>
<path d="M2631 2063 c-29 -28 -52 -56 -50 -62 2 -5 33 -46 68 -90 51 -66 66
-79 78 -70 8 7 11 20 7 33 -4 12 -17 70 -29 130 l-21 110 -53 -51z"/>
<path d="M2710 2103 c0 -5 9 -57 20 -118 11 -60 20 -114 20 -118 0 -5 7 -7 16
-5 11 2 25 34 45 103 16 55 29 103 29 107 0 4 -13 14 -30 23 -30 15 -100 21
-100 8z"/>
<path d="M2836 1980 c-35 -117 -39 -137 -31 -150 7 -11 27 2 97 65 l39 36 -20
42 c-12 23 -30 53 -40 67 l-19 24 -26 -84z"/>
<path d="M2546 1918 c-28 -104 -28 -107 -4 -113 116 -27 148 -32 152 -27 15
14 2 40 -50 100 -31 37 -58 72 -61 79 -10 26 -23 12 -37 -39z"/>
<path d="M2883 1847 c-45 -36 -63 -57 -63 -74 0 -27 1 -27 89 -47 l64 -15 -6
80 c-9 115 -11 116 -84 56z"/>
<path d="M2726 1818 c-23 -33 -21 -103 4 -128 29 -29 47 -24 69 17 39 76 -27
177 -73 111z"/>
<path d="M2523 1711 c9 -109 10 -109 100 -48 45 30 76 58 74 67 -2 14 -38 25
-142 44 l-38 7 6 -70z"/>
<path d="M2814 1705 c-7 -16 10 -52 67 -145 l28 -45 20 46 c11 24 23 63 27 85
l6 40 -59 13 c-32 8 -64 16 -70 18 -7 3 -16 -3 -19 -12z"/>
<path d="M2644 1647 c-27 -23 -61 -49 -73 -57 -23 -16 -23 -16 -6 -50 9 -19
29 -50 43 -69 l25 -33 43 108 c64 158 58 176 -32 101z"/>
<path d="M2784 1656 c-8 -20 2 -176 14 -220 l8 -30 42 38 c23 21 42 44 42 51
0 8 -14 38 -32 67 -17 29 -40 66 -49 83 -16 26 -19 27 -25 11z"/>
<path d="M2699 1544 c-40 -112 -41 -117 -24 -130 10 -8 39 -14 63 -14 l45 0
-7 40 c-3 22 -9 80 -13 130 -3 49 -9 90 -13 90 -4 0 -27 -52 -51 -116z"/>
<path d="M1006 1941 c-3 -5 -12 -36 -20 -70 -11 -47 -12 -63 -3 -66 34 -11
122 -35 129 -35 4 0 8 9 8 20 0 23 -106 164 -114 151z"/>
<path d="M970 1744 c0 -40 14 -112 24 -121 9 -9 126 89 126 106 0 13 -16 20
-60 29 -34 7 -67 15 -75 19 -12 4 -15 -4 -15 -33z"/>
<path d="M1070 1644 c-30 -25 -59 -50 -64 -54 -10 -10 40 -120 54 -120 9 0 68
147 77 193 3 15 2 27 -3 27 -5 0 -34 -21 -64 -46z"/>
<path d="M3650 1969 c0 -103 196 -345 329 -408 50 -23 70 -26 191 -29 192 -5
519 13 562 31 86 36 198 248 198 375 0 41 -1 44 -22 37 -86 -27 -170 -34 -516
-45 -409 -13 -482 -9 -651 33 -83 21 -91 22 -91 6z"/>
<path d="M2468 1443 c7 -3 16 -2 19 1 4 3 -2 6 -13 5 -11 0 -14 -3 -6 -6z"/>
</g>
</svg>
