<?xml version="1.0" standalone="no"?>
<!DOCTYPE svg PUBLIC "-//W3C//DTD SVG 20010904//EN"
 "http://www.w3.org/TR/2001/REC-SVG-20010904/DTD/svg10.dtd">
<svg version="1.0" xmlns="http://www.w3.org/2000/svg"
 width="1024.000000pt" height="1024.000000pt" viewBox="0 0 1024.000000 1024.000000"
 preserveAspectRatio="xMidYMid meet">

<g transform="translate(0.000000,1024.000000) scale(0.100000,-0.100000)"
fill="#000000" stroke="none">
<path d="M2045 10230 c-3 -5 -17 -10 -29 -10 -22 0 -23 -3 -19 -47 10 -105 44
-172 56 -110 l4 22 2 -22 c0 -13 6 -23 11 -23 6 0 10 -9 10 -20 0 -11 -4 -20
-10 -20 -5 0 -10 -9 -10 -20 0 -11 5 -20 10 -20 6 0 10 -9 10 -20 0 -18 -7
-20 -80 -20 -73 0 -80 -2 -80 -20 0 -18 -7 -20 -80 -20 l-80 0 0 -40 c0 -33
-3 -40 -20 -40 -13 0 -20 7 -20 20 0 13 -7 20 -20 20 -13 0 -20 -7 -20 -20 0
-13 -7 -20 -20 -20 -13 0 -20 7 -20 20 0 13 -7 20 -20 20 -17 0 -20 -7 -20
-40 l0 -40 -40 0 -40 0 0 -40 0 -40 -40 0 -40 0 0 -40 c0 -33 -3 -40 -19 -40
-11 0 -22 6 -24 13 -3 6 -8 -3 -12 -20 -4 -19 -14 -33 -22 -33 -12 0 -13 8 -8
40 6 36 5 40 -14 40 -14 0 -21 -6 -21 -20 0 -19 -7 -20 -100 -20 -93 0 -100 1
-100 20 0 18 -7 20 -80 20 -73 0 -80 -2 -80 -20 0 -18 -7 -20 -80 -20 l-80 0
0 40 c0 33 -3 40 -20 40 -13 0 -20 7 -20 20 0 13 -7 20 -20 20 -13 0 -20 -7
-20 -20 0 -13 7 -20 20 -20 13 0 20 -7 20 -20 0 -13 -7 -20 -20 -20 -13 0 -20
-7 -20 -20 0 -17 7 -20 40 -20 33 0 40 -3 40 -20 0 -13 -7 -20 -20 -20 -13 0
-20 -7 -20 -20 0 -12 -7 -20 -16 -20 -9 0 -18 9 -21 20 -3 11 -14 20 -24 20
-12 0 -19 7 -19 20 0 17 -7 20 -40 20 -33 0 -40 3 -40 20 0 13 -7 20 -20 20
-13 0 -20 7 -20 20 0 13 -7 20 -20 20 -13 0 -20 7 -20 20 0 13 -7 20 -20 20
-13 0 -20 7 -20 20 0 18 -7 20 -80 20 -73 0 -80 -2 -80 -20 0 -19 -7 -20 -144
-20 l-145 0 -4 -27 c-2 -16 -6 24 -7 87 -11 357 -17 -1530 -19 -5402 l-1
-4378 5120 0 5120 0 0 5120 0 5120 -4094 0 c-2719 0 -4097 -3 -4101 -10z
m-1899 -555 c-9 -9 -22 -12 -33 -8 -16 6 -15 8 7 14 39 11 43 10 26 -6z m914
-95 c0 -11 -7 -20 -15 -20 -8 0 -15 9 -15 20 0 11 7 20 15 20 8 0 15 -9 15
-20z m-360 -64 c0 -11 -19 -15 -25 -6 -3 5 1 10 9 10 9 0 16 -2 16 -4z m21
-29 c-1 -12 -15 -9 -19 4 -3 6 1 10 8 8 6 -3 11 -8 11 -12z m7753 -1707 c-5
-5 -97 -30 -204 -55 -107 -25 -262 -66 -345 -91 -82 -26 -206 -62 -275 -80
-648 -169 -807 -204 -926 -204 -54 0 -139 5 -189 10 -49 5 -164 17 -255 25
-91 9 -181 18 -200 21 l-35 6 25 13 c33 17 99 29 375 65 226 30 598 90 805
130 157 30 752 116 935 135 88 9 180 20 205 25 67 11 96 12 84 0z m536 -169
c-8 -5 -51 -17 -95 -26 -93 -21 -335 -93 -450 -135 -44 -16 -125 -40 -180 -54
-55 -14 -127 -35 -160 -46 -33 -12 -125 -39 -205 -60 -80 -22 -181 -52 -225
-68 l-79 -30 -94 34 c-107 39 -132 51 -132 64 0 29 379 121 910 220 118 23
262 50 320 61 208 39 428 61 390 40z m330 -175 c0 -24 -681 -258 -1065 -365
l-180 -51 -105 52 -105 51 65 18 c36 11 117 32 180 48 63 16 187 48 275 71
352 93 439 111 825 173 35 6 110 8 110 3z m-3114 -196 c707 -40 1100 -113
1754 -325 124 -40 281 -95 350 -122 69 -27 215 -78 325 -112 233 -73 255 -81
255 -91 0 -55 -506 25 -751 120 -163 63 -765 227 -934 255 -138 23 -327 30
-439 16 -203 -26 -459 -109 -615 -200 -185 -109 -413 -280 -489 -368 -23 -26
-50 -58 -60 -70 -15 -17 -35 -22 -98 -28 -44 -4 -169 -20 -279 -36 -110 -16
-249 -36 -308 -44 -626 -85 -1285 -261 -1882 -505 -177 -72 -537 -249 -580
-285 l-30 -25 60 21 c33 11 101 31 150 44 50 14 176 57 280 96 721 269 1491
468 2160 559 121 17 231 32 245 35 37 7 450 53 630 70 509 47 888 88 985 105
76 14 607 132 740 164 55 13 102 23 103 21 5 -5 -381 -128 -468 -150 -36 -9
-134 -36 -217 -60 -259 -74 -641 -154 -1318 -275 -1025 -184 -1301 -264 -1552
-454 -243 -183 -368 -373 -474 -718 -19 -62 -36 -102 -41 -95 -5 8 -25 -8 -59
-48 -209 -239 -416 -383 -635 -440 -111 -29 -538 -16 -1019 31 -356 34 -446
55 -557 125 -108 69 -279 330 -358 547 -38 105 -100 325 -100 357 0 27 79 169
162 294 129 191 316 336 579 448 137 58 273 98 476 139 242 48 807 133 892
134 20 0 47 10 65 23 54 40 318 193 503 291 403 214 735 349 1066 432 123 31
465 89 614 104 270 27 606 35 869 20z m2990 -231 c96 -30 124 -72 124 -188 0
-93 -40 -246 -93 -356 -89 -183 -286 -446 -453 -605 -169 -161 -298 -262 -532
-418 -353 -237 -602 -380 -962 -551 -543 -259 -1077 -455 -2050 -753 -88 -26
-1046 -272 -1240 -317 -119 -28 -558 -113 -801 -155 -331 -58 -595 -95 -864
-121 -88 -9 -187 -20 -220 -25 -33 -5 -125 -17 -205 -25 -159 -17 -578 -69
-706 -86 -98 -14 -132 -7 -49 10 33 7 121 28 195 46 74 18 187 43 250 55 63
12 230 50 370 85 140 35 282 68 315 75 33 6 96 22 140 35 91 27 571 147 900
225 121 29 279 67 350 86 72 18 229 58 350 88 1095 272 1891 525 2725 864 541
221 817 364 1400 729 350 219 715 547 936 839 99 131 130 188 145 267 11 54
11 60 -9 79 -29 29 -73 27 -292 -17 -230 -47 -276 -47 -399 -3 -52 18 -96 38
-98 45 -3 7 22 17 64 27 120 27 376 77 438 86 80 11 196 2 271 -21z m-2636
-418 c-66 -39 -748 -221 -826 -221 -32 0 41 63 124 108 125 66 261 96 522 111
184 12 197 12 180 2z m1840 -145 c64 -12 200 -66 200 -81 0 -2 -19 3 -42 11
-104 37 -286 35 -437 -7 -141 -38 -203 -70 -555 -282 -150 -91 -639 -344 -811
-420 -223 -98 -279 -119 -284 -106 -2 8 -17 25 -33 39 -15 13 -28 31 -28 38 0
11 -8 13 -32 8 -44 -9 -35 -3 57 34 44 18 386 187 760 374 651 327 760 377
871 395 78 13 252 12 334 -3z m1046 -129 c-56 -239 -181 -476 -391 -736 -296
-368 -844 -776 -1450 -1079 -694 -346 -1626 -679 -2610 -932 -110 -28 -246
-64 -302 -81 -56 -16 -159 -42 -230 -59 -70 -16 -198 -45 -283 -65 -447 -104
-952 -191 -1425 -245 -104 -12 -253 -30 -330 -41 -270 -38 -571 -78 -705 -94
-74 -8 -148 -18 -165 -21 -23 -4 -26 -2 -14 5 9 6 70 20 135 31 224 40 559
120 1179 282 105 28 244 63 310 79 325 77 1067 273 1765 466 917 253 1711 527
2362 817 670 298 1222 644 1663 1046 232 211 447 501 486 654 18 71 22 47 5
-27z m-1039 -111 c38 -8 82 -20 98 -26 29 -12 28 -12 -65 -44 -213 -73 -295
-129 -392 -269 -34 -50 -50 -63 -105 -88 -36 -16 -78 -39 -95 -50 -16 -12 -31
-19 -34 -17 -9 10 17 111 46 180 83 195 254 325 432 327 26 1 77 -5 115 -13z
m-3522 -691 c183 -73 328 -215 399 -391 39 -98 42 -139 2 -51 -42 94 -90 155
-169 213 -154 113 -374 112 -545 -4 -165 -112 -263 -298 -293 -555 -11 -95 -8
-257 7 -332 l6 -30 -28 35 c-16 19 -66 73 -111 120 -90 92 -103 123 -103 233
1 374 216 695 521 777 104 28 219 23 314 -15z m4413 -176 c-242 -336 -534
-603 -997 -909 -439 -290 -987 -559 -1589 -780 -254 -93 -515 -184 -617 -214
-601 -182 -932 -275 -1345 -380 -162 -41 -358 -89 -435 -106 -77 -17 -179 -40
-227 -51 -124 -27 -494 -92 -843 -148 -191 -30 -605 -82 -647 -80 -13 0 31 11
97 24 189 36 1372 332 1840 459 311 85 679 191 924 268 124 38 279 85 345 105
163 47 570 183 714 238 64 24 191 72 282 106 427 158 385 141 795 326 416 188
879 455 1180 682 223 167 408 337 525 483 25 30 46 54 48 53 2 -2 -21 -36 -50
-76z m-3971 -371 c-3 -8 -6 -5 -6 6 -1 11 2 17 5 13 3 -3 4 -12 1 -19z m3823
-292 c0 -11 -159 -178 -240 -252 -357 -325 -757 -583 -1290 -829 -345 -160
-686 -286 -1210 -448 -348 -108 -1153 -320 -1427 -376 -176 -36 -169 -27 22
29 77 23 192 56 255 75 176 51 717 225 980 314 527 178 1069 393 1476 585 636
299 1138 610 1369 845 57 58 65 66 65 57z m-5451 -362 c1 -40 -1 -42 -33 -48
-45 -9 -66 1 -66 30 0 16 6 24 18 24 10 0 24 9 32 20 10 14 16 16 22 7 5 -7 8
0 9 18 0 26 2 27 9 10 5 -11 9 -39 9 -61z"/>
<path d="M5780 7030 c-245 -10 -360 -25 -680 -91 -183 -38 -534 -147 -692
-216 -43 -18 -115 -49 -160 -69 -127 -55 -294 -148 -387 -217 l-83 -62 243 -6
c134 -4 480 -8 767 -9 l524 -2 46 44 c113 108 347 288 503 386 123 77 304 172
399 208 l75 29 -95 6 c-117 8 -209 8 -460 -1z"/>
<path d="M2785 6269 c-235 -52 -368 -89 -510 -139 -432 -155 -695 -310 -937
-555 -147 -148 -144 -156 22 -52 52 33 147 95 210 138 307 207 720 401 1260
593 145 52 135 55 -45 15z"/>
<path d="M3590 5499 c-354 -63 -674 -113 -1155 -180 -229 -31 -232 -32 -520
-25 -159 3 -371 13 -470 21 -99 8 -215 15 -259 15 l-78 0 6 -26 c12 -48 203
-426 276 -548 123 -205 110 -196 331 -220 461 -50 927 -59 1099 -21 173 38
257 99 400 291 40 54 106 140 146 189 40 50 108 141 153 202 44 62 118 159
165 217 l86 106 -38 -1 c-20 -1 -84 -10 -142 -20z m-172 -186 c-14 -16 -44
-56 -67 -90 -23 -35 -43 -63 -44 -63 -17 -4 -516 -29 -582 -30 -107 0 -402 31
-383 40 7 4 54 13 103 20 50 6 158 25 241 41 83 15 223 37 310 49 88 11 211
29 274 39 63 10 128 19 144 20 l30 1 -26 -27z"/>
<path d="M1932 10065 c-12 -13 -19 -26 -15 -28 5 -3 19 5 31 18 12 13 19 26
15 28 -5 3 -19 -5 -31 -18z"/>
<path d="M195 9770 c-3 -5 1 -10 10 -10 9 0 13 5 10 10 -3 6 -8 10 -10 10 -2
0 -7 -4 -10 -10z"/>
</g>
</svg>
